<svg xmlns="http://www.w3.org/2000/svg" width="213" height="100" viewBox="0 0 213 100" fill="none" class="css-1rdnj3v"><g filter="url(#filter0_ddd_10143_3489)"><rect x="14.6957" y="22.5" width="175.576" height="56" rx="7.50027" fill="white"></rect><rect x="14.6957" y="22.5" width="175.576" height="56" rx="7.50027" stroke="#e4e4e7"></rect><rect x="18.0255" y="28" width="56" height="45" rx="3.82979" fill="#f4f4f5"></rect><rect width="105.94" height="11" rx="3.82979" transform="matrix(1 0 0 -1 80.4257 39)" fill="#f4f4f5"></rect><rect width="105.94" height="8" rx="3.82979" transform="matrix(1 0 0 -1 80.4257 51)" fill="#f4f4f5"></rect><rect width="83.9402" height="11" rx="3.82979" transform="matrix(1 0 0 -1 80.4257 73)" fill="#f4f4f5"></rect><rect width="11" height="11" rx="3.82979" transform="matrix(1 0 0 -1 175.366 73)" fill="#f4f4f5"></rect><rect x="8.5" y="17.5" width="189" height="56" rx="7.50027" fill="white"></rect><rect x="8.5" y="17.5" width="189" height="56" rx="7.50027" stroke="#e4e4e7"></rect><rect x="14" y="23" width="56" height="45" rx="3.82979" fill="#f4f4f5"></rect><rect width="115.6" height="11" rx="3.82979" transform="matrix(1 0 0 -1 76.4002 34)" fill="#f4f4f5"></rect><rect width="115.6" height="8" rx="3.82979" transform="matrix(1 0 0 -1 76.4002 46)" fill="#f4f4f5"></rect><rect width="93.5998" height="11" rx="3.82979" transform="matrix(1 0 0 -1 76.4002 68)" fill="#f4f4f5"></rect><rect width="11" height="11" rx="3.82979" transform="matrix(1 0 0 -1 181 68)" fill="#f4f4f5"></rect><rect x="183.454" y="7.45445" width="21.0911" height="21.0911" rx="6.81673" fill="white"></rect><rect x="183.454" y="7.45445" width="21.0911" height="21.0911" rx="6.81673" stroke="#e4e4e7" stroke-width="0.908898"></rect><path d="M189.174 17.9999H194M198.826 17.9999H194M194 17.9999V13.1738M194 17.9999V22.826" stroke="#a1a1aa" stroke-width="1.59057" stroke-linecap="round" stroke-linejoin="round"></path></g><defs><filter id="filter0_ddd_10143_3489" x="0" y="5" width="213" height="95" filterUnits="userSpaceOnUse" color-interpolation-filters="sRGB"><feFlood flood-opacity="0" result="BackgroundImageFix"></feFlood><feColorMatrix in="SourceAlpha" type="matrix" values="0 0 0 0 0 0 0 0 0 0 0 0 0 0 0 0 0 0 127 0" result="hardAlpha"></feColorMatrix><feOffset dy="1"></feOffset><feGaussianBlur stdDeviation="1.5"></feGaussianBlur><feColorMatrix type="matrix" values="0 0 0 0 0 0 0 0 0 0 0 0 0 0 0 0 0 0 0.02 0"></feColorMatrix><feBlend mode="normal" in2="BackgroundImageFix" result="effect1_dropShadow_10143_3489"></feBlend><feColorMatrix in="SourceAlpha" type="matrix" values="0 0 0 0 0 0 0 0 0 0 0 0 0 0 0 0 0 0 127 0" result="hardAlpha"></feColorMatrix><feOffset dy="6"></feOffset><feGaussianBlur stdDeviation="3"></feGaussianBlur><feColorMatrix type="matrix" values="0 0 0 0 0 0 0 0 0 0 0 0 0 0 0 0 0 0 0.02 0"></feColorMatrix><feBlend mode="normal" in2="effect1_dropShadow_10143_3489" result="effect2_dropShadow_10143_3489"></feBlend><feColorMatrix in="SourceAlpha" type="matrix" values="0 0 0 0 0 0 0 0 0 0 0 0 0 0 0 0 0 0 127 0" result="hardAlpha"></feColorMatrix><feOffset dy="13"></feOffset><feGaussianBlur stdDeviation="4"></feGaussianBlur><feColorMatrix type="matrix" values="0 0 0 0 0 0 0 0 0 0 0 0 0 0 0 0 0 0 0.01 0"></feColorMatrix><feBlend mode="normal" in2="effect2_dropShadow_10143_3489" result="effect3_dropShadow_10143_3489"></feBlend><feBlend mode="normal" in="SourceGraphic" in2="effect3_dropShadow_10143_3489" result="shape"></feBlend></filter></defs></svg> 